<svg xmlns="http://www.w3.org/2000/svg"  viewBox="0 0 48 48" width="48px" height="48px"><path fill="#9fa8da" d="M44.9,36H20.1c-1.7,0-3.1-1.4-3.1-3.1V16.1c0-1.7,1.4-3.1,3.1-3.1h24.8c1.7,0,3.1,1.4,3.1,3.1v16.8	C48,34.6,46.6,36,44.9,36z"/><path fill="none" stroke="#18193f" stroke-linecap="round" stroke-linejoin="round" stroke-width="3" d="M3.5,32.2l0-3.5c0-0.8,0.2-1.6,0.7-2.2l2.1-3.1c0.8-1.2,2-2.2,3.3-2.6l2.8-0.9"/><path fill="none" stroke="#18193f" stroke-linecap="round" stroke-linejoin="round" stroke-width="3" d="M18.6,9.5h-2.1c-2.2,0-4,1.8-4,4v14.9c0,0.3,0.1,0.7,0.2,1l8.7-5.4c1.2-0.8,2.8-0.6,3.8,0.4l0,0	c1.2,1.2,1.2,3.2-0.1,4.4l-10.4,9.5c-1.5,1.3-3.4,2.1-5.4,2.1l-2.9,0c-1.7,0-3-1.3-3-3"/><path fill="none" stroke="#18193f" stroke-linecap="round" stroke-linejoin="round" stroke-width="3" d="M30.9,31.5h9.6c2.2,0,4-1.8,4-4v-14c0-2.2-1.8-4-4-4H23.8"/><line x1="13" x2="44" y1="16.5" y2="16.5" fill="none" stroke="#18193f" stroke-linejoin="round" stroke-width="3"/></svg>